<svg xmlns="http://www.w3.org/2000/svg" xmlns:xlink="http://www.w3.org/1999/xlink" viewBox="0 0 24 24">
  <defs>
    <style>
      .cls-1 {
        clip-path: url(#clip-icn-menu_1);
      }

      .cls-2 {
        fill: #666;
      }
    </style>
    <clipPath id="clip-icn-menu_1">
      <rect width="24" height="24"/>
    </clipPath>
  </defs>
  <g id="icn-menu_1" data-name="icn-menu – 1" class="cls-1">
    <path id="Exclusion_1" data-name="Exclusion 1" class="cls-2" d="M203-20H187V-36h16v16Zm-5-8a2,2,0,0,0-2,2,2,2,0,0,0,2,2,2,2,0,0,0,2-2A2,2,0,0,0,198-28Zm-6,0a2,2,0,0,0-2,2,2,2,0,0,0,2,2,2,2,0,0,0,2-2A2,2,0,0,0,192-28Zm3-5a2,2,0,0,0-2,2,2,2,0,0,0,2,2,2,2,0,0,0,2-2A2,2,0,0,0,195-33Z" transform="translate(-183 40)"/>
  </g>
</svg>
